# xmcd
#
# Track frame offsets:
#	150
#	14080
#	45628
#
# Disc length: 828 seconds
#
# Revision: 1
# Processed by: cddbd v1.5.2PL0 Copyright (c) Steve Scherf et al.
# Submitted via: audiograbber 1.83.01
#
DISCID=20033a03
DTITLE=Ninja - Champagne [CDM)
DYEAR=2007
DGENRE=House
TTITLE0=Champagne
TTITLE1=Champagne (Heikki L Powerhouse Remix)
TTITLE2=Champagne (The Blush Sparkling Wine Remix)
EXTD=TR.
EXTT0=
EXTT1=
EXTT2=
PLAYORDER=
